<?xml version="1.0" encoding="UTF-8" standalone="no"?>
<!-- Created with Inkscape (http://www.inkscape.org/) -->

<svg
   version="1.1"
   id="svg876"
   width="192"
   height="192"
   viewBox="0 0 192 192"
   xmlns="http://www.w3.org/2000/svg"
   xmlns:svg="http://www.w3.org/2000/svg">
  <defs
     id="defs880" />
  <g
     id="layer1"
     style="display:inline">
    <g
       id="g1232">
      <path
         style="display:inline;fill:#000000;fill-opacity:1;stroke:#000000;stroke-width:0.32;stroke-opacity:1"
         d="m 75.825652,93.165702 c -1.221119,-1.68234 -4.498428,-2.03897 -6.05761,-1.20793 -4.313578,2.29912 -7.344378,1.58375 -9.597518,-2.04834 -1.1487,-1.8517 -2.32972,-8.10627 -2.32972,-13.41863 0,-5.31235 1.18102,-11.566917 2.32972,-13.41862 2.25314,-3.63209 5.28394,-4.34746 9.597518,-2.04834 1.559182,0.83104 4.836491,0.47441 6.05761,-1.20793 1.221119,-1.68234 1.221119,35.03213 0,33.34979 z"
         id="path21552" />
      <path
         id="path21560"
         style="display:inline;fill:#000000;fill-opacity:1;stroke:none;stroke-width:0.32;stroke-opacity:0.997616"
         d="m 96.608261,58.107284 c -0.286474,-0.496187 -5.046914,-0.65155 -9.672138,-0.65155 -4.625224,0 -9.385664,0.155363 -9.672138,0.65155 -0.541495,0.06763 0.271,6.256143 0.271,18.383521 0,12.127378 -0.812495,18.315887 -0.271,18.383521 0.286474,0.496187 5.046914,0.65155 9.672138,0.65155 4.625224,0 9.385664,-0.155363 9.672138,-0.65155 0.541495,-0.06763 -0.271,-6.256143 -0.271,-18.383521 0,-12.127378 0.812495,-18.315887 0.271,-18.383521 z" />
      <path
         style="display:inline;fill:#000000;fill-opacity:1;stroke:#000000;stroke-width:0.32;stroke-opacity:1"
         d="m 97.8702,59.815908 c 1.221119,1.682337 4.49843,2.038969 6.05761,1.207932 4.31359,-2.299118 7.34439,-1.583749 9.59753,2.048338 1.14869,1.851703 2.32972,8.106272 2.32972,13.418626 0,5.312354 -1.18103,11.566921 -2.32972,13.418624 -2.25314,3.63209 -5.28394,4.34746 -9.59753,2.04834 -1.55918,-0.83104 -4.836491,-0.47441 -6.05761,1.20793 -1.221119,1.68234 -1.221119,-35.032127 0,-33.34979 z"
         id="path21562" />
      <path
         style="fill:#ffffff;fill-opacity:1;stroke:none;stroke-width:1px;stroke-linecap:butt;stroke-linejoin:miter;stroke-opacity:1"
         d="M 86.936123,95.525876 96.337261,76.490805 86.936123,57.455734 77.534985,76.490805 Z"
         id="path1586" />
    </g>
  </g>
</svg>
